<svg
  width="10"
  height="10"
  viewBox="0 0 10 10"
  fill="none"
  xmlns="http://www.w3.org/2000/svg"
>
<path
    d="M6.82157 4.84222C7.47516 4.84222 7.91634 5.29718 7.91634 5.9712C7.91634 6.57782 7.4098 7.08334 6.72353 7.08334C5.9719 7.08334 5.41634 6.47672 5.41634 5.54994C5.41634 3.44363 6.95229 2.6011 7.91634 2.5L7.91634 3.42678C7.26274 3.54473 6.52745 4.2019 6.49477 4.92647C6.52745 4.90962 6.65817 4.84222 6.82157 4.84222Z"
    fill="#79819A"
  />
<path
    d="M3.48824 4.84222C4.14183 4.84222 4.58301 5.29718 4.58301 5.9712C4.58301 6.57782 4.07647 7.08334 3.3902 7.08334C2.63856 7.08334 2.08301 6.47672 2.08301 5.54994C2.08301 3.44363 3.61896 2.6011 4.58301 2.5V3.42678C3.92941 3.54473 3.19412 4.2019 3.16144 4.92647C3.19412 4.90962 3.32484 4.84222 3.48824 4.84222Z"
    fill="#79819A"
  />
</svg>
