<svg
  width="6"
  height="5"
  viewBox="0 0 6 5"
  fill="none"
  xmlns="http://www.w3.org/2000/svg"
>
<path
    d="M1.09477 2.65908C0.441176 2.65908 0 2.20412 0 1.5301C0 0.923484 0.506536 0.417969 1.19281 0.417969C1.94444 0.417969 2.5 1.02459 2.5 1.95136C2.5 4.05768 0.964052 4.9002 0 5.0013V4.07453C0.653595 3.95657 1.38889 3.2994 1.42157 2.57483C1.38889 2.59168 1.25817 2.65908 1.09477 2.65908Z"
    fill="#79819A"
  />
<path
    d="M4.4281 2.65908C3.77451 2.65908 3.33333 2.20412 3.33333 1.5301C3.33333 0.923484 3.83987 0.417969 4.52614 0.417969C5.27778 0.417969 5.83333 1.02459 5.83333 1.95136C5.83333 4.05768 4.29738 4.9002 3.33333 5.0013V4.07453C3.98693 3.95657 4.72222 3.2994 4.7549 2.57483C4.72222 2.59168 4.5915 2.65908 4.4281 2.65908Z"
    fill="#79819A"
  />
</svg>
