<svg
  width="16"
  height="16"
  viewBox="0 0 16 16"
  fill="none"
  xmlns="http://www.w3.org/2000/svg"
>
<g clip-path="url(#clip0_8869_49825)">
<rect width="16" height="16" rx="8" fill="#E2E6EE" />
<path
      d="M6.52673 11.5559C5.68416 11.5559 4.92455 11.0484 4.60206 10.2699C4.27957 9.49154 4.4577 8.59552 5.05339 7.99964L5.93756 7.11548L6.52673 7.70464L5.64298 8.58839C5.32717 8.9042 5.20383 9.3645 5.31942 9.7959C5.43502 10.2273 5.77198 10.5643 6.20338 10.6799C6.63478 10.7955 7.09508 10.6721 7.41089 10.3563L8.29464 9.47256L8.88381 10.0621L8.00006 10.9459C7.61009 11.3378 7.07958 11.5574 6.52673 11.5559ZM6.82131 9.76714L6.23214 9.17798L9.17839 6.23173L9.76756 6.82089L6.82173 9.76673L6.82131 9.76714ZM10.0626 8.88339L9.47298 8.29423L10.3567 7.41048C10.6768 7.09561 10.8035 6.63325 10.6885 6.19922C10.5735 5.76518 10.2346 5.42616 9.80056 5.31108C9.36655 5.19599 8.90416 5.32253 8.58923 5.64256L7.70506 6.52631L7.11589 5.93714L8.00006 5.05298C8.81468 4.24546 10.1288 4.24834 10.9399 5.05941C11.7509 5.87049 11.7538 7.18461 10.9463 7.99923L10.0626 8.88298V8.88339Z"
      fill="#79819A"
    />
</g>
<defs>
<clipPath id="clip0_8869_49825">
<rect width="16" height="16" fill="white" />
</clipPath>
</defs>
</svg>
