<svg
  width="16"
  height="16"
  viewBox="0 0 16 16"
  fill="none"
  xmlns="http://www.w3.org/2000/svg"
>
<g clip-path="url(#clip0_8869_49841)">
<rect width="16" height="16" rx="8" fill="#E2E6EE" />
<path
      d="M7.99968 11.7515C7.4734 11.3026 6.98559 10.8105 6.54134 10.2803C5.87468 9.48405 5.08301 8.29821 5.08301 7.16821C5.08242 5.98802 5.79311 4.92379 6.88345 4.47213C7.9738 4.02047 9.22887 4.2704 10.063 5.1053C10.6115 5.65138 10.9188 6.39421 10.9164 7.16821C10.9164 8.29821 10.1247 9.48405 9.45801 10.2803C9.01377 10.8105 8.52595 11.3026 7.99968 11.7515ZM7.99968 5.91821C7.55309 5.91821 7.14043 6.15646 6.91714 6.54321C6.69385 6.92996 6.69385 7.40646 6.91714 7.79321C7.14043 8.17997 7.55309 8.41821 7.99968 8.41821C8.69003 8.41821 9.24968 7.85857 9.24968 7.16821C9.24968 6.47786 8.69003 5.91821 7.99968 5.91821Z"
      fill="#79819A"
    />
</g>
<defs>
<clipPath id="clip0_8869_49841">
<rect width="16" height="16" rx="8" fill="white" />
</clipPath>
</defs>
</svg>
