<svg
  width="16"
  height="16"
  viewBox="0 0 16 16"
  fill="none"
  xmlns="http://www.w3.org/2000/svg"
>
<g clip-path="url(#clip0_8869_49833)">
<rect width="16" height="16" rx="8" fill="#E2E6EE" />
<path
      d="M10.9159 11.3346C7.36111 11.3397 4.66319 8.60942 4.667 5.08568C4.667 4.85556 4.85354 4.66797 5.08366 4.66797H6.1834C6.38988 4.66797 6.5653 4.81969 6.59562 5.02394C6.66829 5.51347 6.81081 5.99004 7.01886 6.4391L7.06168 6.53151C7.12121 6.66001 7.08086 6.81269 6.96561 6.895C6.62503 7.13821 6.49488 7.62778 6.7602 8.00978C7.09315 8.48915 7.51285 8.90876 7.99211 9.24156C8.37408 9.50681 8.86357 9.37667 9.10679 9.03615C9.18915 8.92084 9.34191 8.88047 9.47049 8.94003L9.56248 8.98264C10.0116 9.19067 10.4882 9.33321 10.9778 9.40587C11.182 9.43618 11.3337 9.61158 11.3337 9.81808V10.918C11.3337 11.1481 11.1467 11.3346 10.9165 11.3346L10.9159 11.3346Z"
      fill="#79819A"
    />
</g>
<defs>
<clipPath id="clip0_8869_49833">
<rect width="16" height="16" fill="white" />
</clipPath>
</defs>
</svg>
